<?xml version="1.0" standalone="no"?>
<!DOCTYPE svg PUBLIC "-//W3C//DTD SVG 20010904//EN"
 "http://www.w3.org/TR/2001/REC-SVG-20010904/DTD/svg10.dtd">
<svg version="1.0" xmlns="http://www.w3.org/2000/svg"
 width="1080.000000pt" height="288.000000pt" viewBox="0 0 1080.000000 288.000000"
 preserveAspectRatio="xMidYMid meet">

<g transform="translate(0.000000,288.000000) scale(0.100000,-0.100000)"
fill="#3171b8" stroke="none">
<path d="M5360 1815 l0 -875 145 0 145 0 2 512 3 511 55 20 c44 16 82 20 190
21 129 1 137 0 193 -28 44 -21 66 -40 88 -74 l29 -46 0 -458 0 -458 150 0 151
0 -3 473 -3 472 -28 56 c-73 149 -229 220 -482 220 -107 0 -146 -4 -220 -24
-49 -13 -98 -28 -107 -32 -17 -7 -18 11 -18 289 l0 296 -145 0 -145 0 0 -875z"/>
<path d="M8800 1815 l0 -875 65 0 65 0 0 875 0 875 -65 0 -65 0 0 -875z"/>
<path d="M9260 1815 l0 -875 65 0 65 0 0 875 0 875 -65 0 -65 0 0 -875z"/>
<path d="M8345 2537 c-21 -17 -27 -32 -27 -61 0 -54 29 -81 88 -81 57 0 84 28
84 85 0 72 -88 106 -145 57z"/>
<path d="M744 2480 c-207 -54 -356 -198 -383 -371 -13 -82 -1 -163 35 -228 54
-100 132 -151 374 -246 92 -36 191 -82 221 -103 92 -64 123 -164 80 -257 -74
-164 -330 -220 -598 -130 -42 14 -77 24 -78 23 -9 -8 -75 -162 -75 -173 0 -16
112 -51 226 -71 135 -24 358 -22 457 5 177 47 299 137 364 269 37 73 38 80 38
181 0 94 -3 112 -27 164 -54 115 -163 190 -398 272 -239 85 -320 153 -320 267
1 84 52 158 145 206 94 49 310 41 441 -17 l42 -19 36 80 c20 44 34 84 31 88
-8 13 -122 48 -209 65 -111 21 -312 19 -402 -5z"/>
<path d="M4775 2454 c-55 -14 -117 -29 -137 -35 l-38 -10 0 -134 0 -135 -95 0
-95 0 0 -75 0 -75 94 0 95 0 3 -417 c3 -416 3 -418 27 -471 30 -67 104 -134
179 -163 47 -18 78 -22 177 -23 66 -1 132 2 148 7 26 7 27 9 27 85 l0 77 -65
-3 c-82 -5 -143 22 -177 76 -23 37 -23 38 -23 432 l0 395 133 3 132 3 0 74 0
75 -135 0 -135 0 0 170 c0 94 -3 170 -7 169 -5 0 -53 -12 -108 -25z"/>
<path d="M6830 1705 l0 -765 65 0 65 0 0 375 0 375 450 0 450 0 0 -375 0 -375
65 0 65 0 0 765 0 765 -65 0 -65 0 0 -345 0 -345 -450 0 -450 0 0 345 0 345
-65 0 -65 0 0 -765z"/>
<path d="M2115 2164 c-257 -42 -428 -192 -492 -434 -28 -104 -23 -311 9 -417
32 -106 78 -181 155 -253 114 -107 248 -153 448 -152 304 0 503 131 592 387
26 75 28 91 27 240 0 146 -2 167 -27 240 -61 184 -181 303 -361 361 -64 20
-106 26 -201 29 -66 2 -133 1 -150 -1z m213 -169 c154 -46 237 -207 236 -460
-1 -222 -63 -362 -188 -427 -30 -16 -65 -23 -129 -26 -83 -4 -91 -3 -152 27
-75 37 -123 92 -154 177 -72 191 -47 477 52 606 42 54 73 76 138 99 66 23 129
24 197 4z"/>
<path d="M10003 2160 c-147 -27 -252 -98 -308 -210 -25 -49 -24 -152 2 -211
43 -96 125 -148 338 -214 232 -72 305 -128 321 -248 5 -32 1 -56 -16 -95 -27
-63 -73 -105 -160 -146 -63 -30 -69 -31 -205 -31 -139 1 -186 10 -296 59 -11
5 -20 -3 -32 -29 -23 -49 -22 -52 21 -71 117 -50 364 -70 486 -38 188 49 326
184 329 322 2 85 -19 146 -70 203 -54 59 -133 99 -318 159 -148 48 -190 68
-239 111 -97 84 -70 234 54 311 110 67 317 66 451 -3 l36 -18 22 40 23 39 -44
20 c-107 47 -285 70 -395 50z"/>
<path d="M3090 1723 c0 -239 5 -445 10 -482 27 -166 144 -275 340 -317 160
-35 505 -16 697 39 l78 22 3 578 2 577 -145 0 -145 0 -2 -511 -3 -512 -40 -15
c-29 -11 -81 -16 -185 -16 -143 -1 -146 -1 -199 29 -61 34 -95 79 -110 145 -6
27 -11 214 -11 463 l0 417 -145 0 -145 0 0 -417z"/>
<path d="M8340 1540 l0 -600 65 0 65 0 0 600 0 600 -65 0 -65 0 0 -600z"/>
<path d="M1000 485 l0 -235 40 0 40 0 0 139 c0 154 -1 151 69 151 20 0 47 -7
59 -16 21 -14 22 -22 22 -145 l0 -129 40 0 40 0 0 130 c0 129 0 130 -29 162
-29 32 -31 33 -115 33 l-86 0 0 72 0 73 -40 0 -40 0 0 -235z"/>
<path d="M2210 485 l0 -235 35 0 35 0 0 235 0 235 -35 0 -35 0 0 -235z"/>
<path d="M3041 694 c-24 -20 -32 -36 -37 -75 -6 -43 -9 -49 -30 -49 -15 0 -24
-6 -24 -15 0 -9 9 -15 25 -15 l25 0 0 -145 0 -145 40 0 40 0 0 145 0 145 35 0
c24 0 35 5 35 15 0 10 -11 15 -35 15 -34 0 -35 1 -35 38 0 41 23 72 53 72 10
0 17 8 17 20 0 31 -69 28 -109 -6z"/>
<path d="M8000 485 l0 -235 35 0 35 0 0 135 c0 152 2 155 79 155 72 0 81 -19
81 -165 l0 -125 40 0 40 0 0 123 c0 138 -8 163 -60 190 -28 15 -49 17 -107 13
l-73 -6 0 75 0 75 -35 0 -35 0 0 -235z"/>
<path d="M9200 485 l0 -235 40 0 40 0 0 235 0 235 -40 0 -40 0 0 -235z"/>
<path d="M4542 688 c-19 -19 -14 -37 12 -49 32 -15 68 4 64 34 -2 16 -11 23
-33 25 -17 2 -36 -3 -43 -10z"/>
<path d="M405 658 c-53 -29 -75 -61 -75 -108 0 -56 12 -69 95 -105 76 -34 95
-51 95 -87 0 -55 -92 -84 -171 -53 -10 4 -19 -2 -27 -19 -10 -23 -9 -24 33
-35 123 -31 235 12 251 96 12 62 -10 91 -102 133 -94 44 -114 68 -89 106 23
36 61 48 115 36 43 -10 59 -4 60 21 0 25 -145 37 -185 15z"/>
<path d="M3450 661 l-25 -7 -3 -197 -2 -197 27 -7 c16 -5 69 -8 118 -8 129 1
185 36 185 115 0 39 -34 81 -80 98 l-25 10 25 10 c92 36 80 154 -19 182 -40
11 -163 12 -201 1z m185 -56 c31 -30 32 -56 2 -90 -18 -22 -34 -27 -85 -32
l-62 -6 0 70 c0 38 3 73 7 76 3 4 31 7 60 7 44 0 58 -5 78 -25z m10 -185 c31
-29 34 -81 6 -109 -24 -24 -79 -36 -126 -27 l-35 7 0 81 0 80 65 -4 c50 -3 70
-9 90 -28z"/>
<path d="M6390 653 c-72 -37 -75 -110 -6 -149 l38 -21 -46 -23 c-98 -47 -100
-146 -4 -196 41 -21 152 -29 220 -15 l57 12 3 117 3 116 33 10 c31 9 42 29 22
41 -5 3 -39 -3 -76 -15 -92 -28 -165 -27 -200 3 -63 54 21 121 110 88 30 -12
58 11 37 32 -20 20 -151 21 -191 0z m180 -268 c0 -93 0 -95 -26 -101 -35 -9
-100 1 -129 20 -34 22 -42 71 -18 105 17 23 122 70 161 71 9 0 12 -25 12 -95z"/>
<path d="M6960 640 c0 -18 7 -20 55 -20 l55 0 0 -185 0 -185 40 0 40 0 0 185
0 185 55 0 c48 0 55 2 55 20 0 19 -7 20 -150 20 -143 0 -150 -1 -150 -20z"/>
<path d="M760 563 c-54 -28 -80 -75 -80 -145 0 -71 21 -120 64 -151 25 -17 45
-22 98 -22 69 0 93 11 83 37 -5 11 -17 14 -54 10 -39 -3 -52 0 -75 19 -34 30
-49 90 -35 142 18 67 70 99 128 79 24 -9 31 -7 36 5 9 26 -10 36 -72 40 -42 3
-68 -1 -93 -14z"/>
<path d="M1470 562 c-54 -27 -80 -74 -80 -146 0 -82 22 -124 80 -154 84 -44
197 -15 235 58 24 46 20 150 -8 191 -29 44 -80 69 -142 69 -28 0 -66 -8 -85
-18z m145 -48 c46 -49 43 -166 -5 -209 -30 -28 -89 -23 -116 8 -43 50 -38 164
8 207 31 29 83 26 113 -6z"/>
<path d="M1872 564 c-50 -25 -75 -69 -80 -135 -9 -122 67 -198 186 -186 59 6
92 25 126 71 17 21 21 42 21 96 0 74 -14 103 -68 144 -37 28 -139 33 -185 10z
m130 -35 c26 -14 48 -68 48 -120 0 -91 -56 -143 -124 -115 -43 18 -60 59 -54
137 4 52 9 66 32 86 29 25 65 29 98 12z"/>
<path d="M2642 563 c-51 -25 -76 -68 -80 -138 -5 -83 20 -135 81 -164 47 -23
92 -26 148 -11 134 37 143 262 12 316 -44 19 -121 17 -161 -3z m143 -47 c27
-28 40 -80 32 -137 -9 -69 -60 -107 -117 -88 -41 15 -60 55 -60 129 0 55 3 65
29 91 37 37 82 39 116 5z"/>
<path d="M4268 564 c-33 -18 -48 -43 -48 -83 0 -34 31 -63 88 -82 70 -22 91
-59 52 -94 -16 -14 -31 -17 -80 -12 -51 4 -62 2 -70 -13 -12 -22 0 -27 76 -36
94 -11 174 33 174 96 0 41 -26 68 -91 91 -65 24 -86 47 -70 78 17 31 72 42
111 21 15 -8 21 -6 30 10 9 17 7 22 -15 30 -38 15 -126 11 -157 -6z"/>
<path d="M4743 569 l-33 -10 0 -154 0 -155 35 0 35 0 0 139 c0 117 2 140 16
145 30 11 100 6 122 -10 21 -14 22 -22 22 -145 l0 -129 40 0 40 0 0 128 c0
143 -7 164 -66 188 -37 16 -161 17 -211 3z"/>
<path d="M5180 562 c-56 -28 -80 -73 -80 -151 0 -128 81 -186 233 -167 63 8
80 17 72 38 -5 14 -19 15 -78 11 -89 -6 -122 6 -144 52 -9 19 -15 37 -12 39 2
2 59 11 127 19 68 8 125 16 127 19 7 7 -13 78 -30 104 -34 52 -146 71 -215 36z
m145 -47 c14 -13 25 -35 25 -49 0 -22 -5 -25 -52 -31 -29 -3 -73 -9 -97 -12
-43 -6 -44 -5 -38 18 4 13 7 29 7 35 0 6 11 23 25 38 33 36 95 37 130 1z"/>
<path d="M5554 571 c-29 -13 -64 -59 -64 -85 0 -37 27 -62 89 -85 67 -24 88
-49 71 -81 -14 -25 -49 -34 -110 -27 -39 5 -50 3 -54 -10 -19 -48 151 -57 209
-11 56 44 52 115 -8 140 -91 38 -112 53 -112 78 0 37 43 57 94 44 33 -9 41 -8
46 4 3 9 1 20 -5 26 -13 13 -129 18 -156 7z"/>
<path d="M5853 565 c-37 -16 -53 -42 -53 -84 0 -34 31 -63 88 -82 70 -22 91
-59 52 -94 -16 -14 -31 -17 -80 -12 -51 4 -62 2 -70 -13 -12 -22 0 -27 76 -36
94 -11 174 33 174 96 0 41 -26 68 -91 91 -65 24 -86 47 -70 78 17 31 72 42
111 21 15 -8 21 -6 30 10 9 17 7 22 -15 30 -37 14 -114 12 -152 -5z"/>
<path d="M7362 563 c-56 -28 -77 -68 -77 -150 0 -57 4 -77 21 -100 37 -49 81
-68 159 -68 89 0 127 10 123 33 -3 15 -14 16 -76 13 -90 -4 -125 9 -147 56 -9
19 -15 36 -13 38 1 2 50 8 108 15 159 17 153 14 145 58 -14 80 -68 122 -155
122 -30 0 -70 -8 -88 -17z m145 -45 c12 -13 23 -34 25 -47 3 -28 -9 -32 -122
-45 l-60 -7 0 31 c0 74 108 121 157 68z"/>
<path d="M7765 568 c-73 -40 -108 -124 -86 -205 24 -87 90 -131 183 -120 62 8
71 13 58 36 -8 15 -18 18 -54 14 -40 -5 -48 -2 -75 24 -35 36 -48 90 -32 142
17 58 44 76 106 75 38 -1 55 3 59 13 12 29 -114 46 -159 21z"/>
<path d="M8433 569 l-33 -10 0 -154 0 -155 35 0 35 0 0 139 c0 153 -1 151 66
151 36 0 73 -15 86 -34 4 -6 8 -66 8 -133 l0 -123 40 0 40 0 -1 118 c-1 139
-6 159 -42 186 -23 17 -45 21 -115 23 -48 1 -102 -2 -119 -8z"/>
<path d="M8875 566 c-98 -42 -123 -187 -49 -275 67 -80 228 -61 275 32 17 31
20 54 17 102 -4 71 -30 114 -82 139 -41 19 -119 20 -161 2z m136 -55 c26 -26
29 -36 29 -91 0 -74 -19 -114 -61 -129 -84 -29 -149 89 -105 193 26 63 88 75
137 27z"/>
<path d="M9442 564 c-51 -26 -76 -69 -80 -139 -6 -84 20 -134 84 -165 37 -18
56 -22 102 -17 98 10 147 69 146 175 -1 67 -15 97 -67 136 -37 28 -139 33
-185 10z m143 -48 c27 -28 40 -80 32 -137 -9 -69 -60 -107 -117 -88 -41 15
-60 55 -60 129 0 55 3 65 29 91 37 37 82 39 116 5z"/>
<path d="M9850 558 c-96 -49 -120 -187 -47 -267 32 -34 63 -43 140 -42 59 0
67 -2 67 -18 0 -54 -72 -85 -161 -69 -40 7 -54 6 -60 -4 -19 -29 -4 -36 88
-45 80 -8 146 10 178 49 25 29 25 32 25 213 0 133 -3 186 -12 191 -7 4 -48 10
-93 12 -69 3 -86 0 -125 -20z m158 -142 c3 -131 1 -136 -55 -136 -71 0 -113
47 -113 128 0 51 12 84 42 111 18 18 33 21 73 19 l50 -3 3 -119z"/>
<path d="M3830 450 c0 -133 9 -166 56 -190 29 -16 167 -20 217 -7 l27 7 0 155
0 155 -35 0 -35 0 0 -134 c0 -93 -4 -137 -12 -142 -23 -15 -97 -8 -118 11 -18
16 -20 31 -20 142 l0 123 -40 0 -40 0 0 -120z"/>
<path d="M4540 410 l0 -160 40 0 40 0 0 160 0 160 -40 0 -40 0 0 -160z"/>
<path d="M10150 567 c0 -3 29 -75 65 -161 l65 -156 -30 -60 c-16 -33 -30 -62
-30 -65 0 -4 18 -5 41 -3 l41 3 83 202 c109 265 104 243 62 243 l-35 0 -42
-117 c-23 -65 -44 -125 -47 -133 -2 -8 -23 44 -47 115 l-42 130 -42 3 c-23 2
-42 1 -42 -1z"/>
</g>
</svg>
